<svg xmlns="http://www.w3.org/2000/svg" width="1512" height="431" viewBox="0 0 1512 431" fill="none"><path d="M227.975 73.639C227.961 64.8963 233.108 55.9665 238.985 55.3657C244.538 54.798 245.245 61.3146 246.781 75.469C246.871 76.2949 246.963 77.1467 247.06 78.0246C247.612 83.0598 248.861 87.2419 249.995 91.039C251.329 95.5073 252.503 99.4425 252.198 103.607C251.148 117.91 243.694 121.905 238.985 121.15C235.278 120.555 234.658 114.234 233.861 106.116C233.646 103.923 233.418 101.599 233.113 99.2217C232.565 94.9571 231.515 91.1995 230.507 87.5891C229.211 82.9507 227.982 78.5551 227.975 73.639Z" fill="#A1C15C"></path><path d="M282.175 52.8622C288.374 46.6703 298.355 43.9807 302.937 47.6937C307.266 51.202 303.139 56.3078 294.174 67.3981L294.164 67.4102C293.644 68.0535 293.108 68.7169 292.556 69.4013C289.371 73.3508 287.284 77.1872 285.39 80.6703C283.16 84.7692 281.196 88.379 278.023 91.1088C267.124 100.483 259.016 98.0594 256.223 94.2099C254.023 91.1792 258.074 86.2729 263.275 79.972L263.277 79.9696C264.681 78.2682 266.17 76.4651 267.642 74.5697C270.283 71.1687 272.209 67.7725 274.059 64.5092C276.437 60.3168 278.69 56.3439 282.175 52.8622Z" fill="#A1C15C"></path><path d="M334.958 76.4013C343.738 76.3874 352.706 81.5134 353.309 87.3653C353.879 92.8945 347.335 93.5987 333.12 95.1283C332.291 95.2175 331.435 95.3096 330.554 95.4055C325.497 95.9559 321.297 97.1992 317.484 98.3281C312.997 99.6564 309.045 100.826 304.862 100.522C290.499 99.4768 286.487 92.0542 287.245 87.3653C287.842 83.6736 294.19 83.0561 302.342 82.263C304.545 82.0488 306.879 81.8218 309.267 81.5178C313.549 80.9727 317.323 79.9272 320.949 78.9227C325.607 77.6321 330.021 76.4091 334.958 76.4013Z" fill="#A1C15C"></path><path d="M355.679 130.981C361.897 137.153 364.598 147.092 360.869 151.655C357.346 155.966 352.219 151.856 341.081 142.929C340.431 142.408 339.761 141.871 339.07 141.318C335.103 138.147 331.25 136.069 327.752 134.182C323.636 131.962 320.011 130.007 317.27 126.846C307.855 115.994 310.29 107.921 314.155 105.139C317.199 102.949 322.126 106.982 328.454 112.161C330.163 113.56 331.975 115.043 333.879 116.51C337.295 119.14 340.705 121.057 343.982 122.9C348.193 125.267 352.182 127.511 355.679 130.981Z" fill="#A1C15C"></path><path d="M331.647 183.504C331.661 192.247 326.513 201.177 320.637 201.778C315.084 202.346 314.377 195.829 312.841 181.674L312.84 181.668C312.75 180.844 312.658 179.995 312.562 179.119C312.009 174.084 310.761 169.902 309.627 166.105C308.293 161.636 307.118 157.701 307.424 153.536C308.473 139.233 315.928 135.239 320.637 135.994C324.344 136.588 324.964 142.909 325.76 151.027C325.976 153.22 326.204 155.544 326.509 157.922C327.056 162.186 328.106 165.944 329.115 169.554C330.411 174.193 331.639 178.588 331.647 183.504Z" fill="#A1C15C"></path><path d="M277.063 204.138C270.865 210.33 260.884 213.019 256.301 209.306C251.972 205.798 256.099 200.692 265.064 189.602L265.093 189.567C265.607 188.931 266.137 188.275 266.682 187.599C269.867 183.649 271.954 179.813 273.849 176.33C276.078 172.231 278.042 168.621 281.216 165.891C292.115 156.517 300.222 158.941 303.016 162.79C305.215 165.821 301.165 170.727 295.963 177.028C294.558 178.73 293.069 180.534 291.597 182.43C288.955 185.831 287.029 189.228 285.179 192.491C282.802 196.683 280.549 200.656 277.063 204.138Z" fill="#A1C15C"></path><path d="M224.665 180.225C215.885 180.238 206.917 175.112 206.314 169.261C205.743 163.731 212.288 163.027 226.502 161.498L226.511 161.497L226.528 161.495C227.349 161.406 228.196 161.315 229.069 161.22C234.125 160.67 238.325 159.427 242.139 158.298C246.626 156.969 250.578 155.8 254.76 156.104C269.124 157.149 273.135 164.572 272.377 169.261C271.78 172.952 265.432 173.57 257.28 174.363C255.078 174.577 252.744 174.804 250.356 175.108C246.073 175.653 242.3 176.699 238.674 177.703C234.016 178.994 229.602 180.217 224.665 180.225Z" fill="#A1C15C"></path><path d="M204.462 126.162C198.244 119.99 195.542 110.051 199.271 105.488C202.794 101.177 207.922 105.287 219.059 114.214C219.709 114.735 220.38 115.272 221.071 115.825C225.037 118.996 228.89 121.075 232.388 122.961C236.504 125.182 240.13 127.137 242.871 130.297C252.285 141.15 249.851 149.223 245.985 152.005C242.942 154.195 238.015 150.162 231.687 144.982C229.977 143.583 228.166 142.1 226.262 140.634C222.846 138.004 219.435 136.086 216.158 134.243C211.948 131.876 207.958 129.633 204.462 126.162Z" fill="#A1C15C"></path><path d="M65.6099 205.17V176.02H140.96V205.17H120.06V313.85H188.15V343H65.6099V313.85H85.7399V205.17H65.6099ZM210.04 279.2V343H175.72V279.2H210.04Z" fill="#27235E"></path><path d="M299.958 315.5H317.228V343H247.598V315.5H266.518V249.28H247.598V221.78H299.958V315.5Z" fill="#27235E"></path><path d="M407.062 315.5H422.572V343H354.702V315.5H373.622V249.28H354.702V221.78H407.062V315.5ZM454.472 315.5V268.97C454.472 262.077 452.822 256.613 449.522 252.58C446.295 248.473 441.492 246.42 435.112 246.42C429.685 246.42 424.845 247.923 420.592 250.93C416.412 253.863 413.112 258.117 410.692 263.69C408.272 269.19 407.062 275.753 407.062 283.38L401.232 257.97H408.272C409.445 249.39 411.865 242.24 415.532 236.52C419.272 230.8 424.039 226.51 429.832 223.65C435.699 220.717 442.409 219.25 449.962 219.25C462.209 219.25 471.595 222.843 478.122 230.03C484.649 237.143 487.912 247.373 487.912 260.72V315.5H505.402V343H438.962V315.5H454.472Z" fill="#27235E"></path><path d="M603.903 392.06C591.877 392.06 581.133 391.18 571.673 389.42C562.287 387.733 554.88 385.02 549.453 381.28C544.027 377.54 541.313 372.627 541.313 366.54C541.313 360.453 544.467 355.907 550.773 352.9C557.153 349.893 565.403 347.95 575.523 347.07V343.88L594.773 346.3C588.833 346.227 584.25 346.813 581.023 348.06C577.87 349.307 575.67 350.81 574.423 352.57C573.25 354.403 572.663 356.163 572.663 357.85C572.663 360.857 574.02 363.167 576.733 364.78C579.52 366.393 583.333 367.53 588.173 368.19C593.013 368.85 598.55 369.18 604.783 369.18C616.663 369.18 625.207 368.007 630.413 365.66C635.693 363.313 638.333 359.867 638.333 355.32C638.333 349.307 633.64 346.3 624.253 346.3H583.223C571.857 346.3 562.837 344.54 556.163 341.02C549.563 337.427 546.263 332.073 546.263 324.96C546.263 318.433 548.94 313.447 554.293 310C559.647 306.48 567.677 304.353 578.383 303.62V298.78L600.713 305.16H591.583C587.55 305.16 584.47 305.71 582.343 306.81C580.217 307.837 579.153 309.45 579.153 311.65C579.153 313.777 580.18 315.28 582.233 316.16C584.36 316.967 587.513 317.37 591.693 317.37H626.783C635.73 317.37 643.54 318.763 650.214 321.55C656.887 324.263 662.057 328.297 665.723 333.65C669.463 338.93 671.333 345.42 671.333 353.12C671.333 360.893 669.133 367.677 664.733 373.47C660.333 379.337 653.183 383.883 643.283 387.11C633.457 390.41 620.33 392.06 603.903 392.06ZM600.713 305.16C589.86 305.16 580.253 303.4 571.893 299.88C563.607 296.287 557.117 291.3 552.423 284.92C547.73 278.467 545.383 270.913 545.383 262.26C545.383 253.607 547.693 246.053 552.313 239.6C556.933 233.147 563.35 228.16 571.563 224.64C579.85 221.047 589.457 219.25 600.383 219.25C611.017 219.25 620.33 221.01 628.323 224.53C636.39 228.05 642.55 233.037 646.803 239.49C649.517 242.937 651.533 246.603 652.853 250.49C654.173 254.303 654.833 258.41 654.833 262.81C654.833 271.39 652.56 278.87 648.013 285.25C643.467 291.557 637.123 296.47 628.983 299.99C620.917 303.437 611.493 305.16 600.713 305.16ZM600.823 280.3C604.93 280.3 608.56 279.567 611.713 278.1C614.867 276.56 617.323 274.47 619.083 271.83C620.917 269.117 621.833 265.927 621.833 262.26C621.833 258.593 620.917 255.403 619.083 252.69C617.323 249.903 614.867 247.777 611.713 246.31C608.56 244.77 604.93 244 600.823 244C596.717 244 593.05 244.77 589.823 246.31C586.67 247.777 584.177 249.903 582.343 252.69C580.51 255.403 579.593 258.593 579.593 262.26C579.593 265.927 580.51 269.117 582.343 271.83C584.177 274.47 586.67 276.56 589.823 278.1C593.05 279.567 596.717 280.3 600.823 280.3ZM654.833 262.81L647.133 249.83L641.193 240.92L647.133 238.17C646.767 237.29 646.51 236.373 646.363 235.42C646.217 234.393 646.143 233.403 646.143 232.45C646.143 228.563 647.023 225.3 648.783 222.66C650.543 219.947 653 217.93 656.154 216.61C659.38 215.217 663.12 214.52 667.373 214.52C668.62 214.52 669.757 214.557 670.783 214.63C671.883 214.703 672.873 214.813 673.753 214.96V246.75C671.553 246.31 669.463 246.017 667.483 245.87C665.503 245.723 663.817 245.65 662.423 245.65C660.297 245.65 658.573 245.87 657.253 246.31C656.007 246.677 655.09 247.263 654.503 248.07C653.99 248.803 653.733 249.72 653.733 250.82C653.733 251.627 653.807 252.617 653.953 253.79C654.173 254.89 654.357 256.247 654.503 257.86C654.723 259.4 654.833 261.05 654.833 262.81Z" fill="#27235E"></path><path d="M774.525 345.53C761.105 345.53 749.409 342.89 739.435 337.61C729.462 332.257 721.689 324.887 716.115 315.5C710.615 306.04 707.865 295.113 707.865 282.72C707.865 270.18 710.615 259.143 716.115 249.61C721.689 240.077 729.462 232.633 739.435 227.28C749.409 221.927 761.105 219.25 774.525 219.25C787.872 219.25 799.532 221.927 809.505 227.28C819.552 232.633 827.325 240.077 832.826 249.61C838.325 259.143 841.076 270.18 841.076 282.72C841.076 295.113 838.325 306.04 832.826 315.5C827.325 324.887 819.589 332.257 809.615 337.61C799.642 342.89 787.945 345.53 774.525 345.53ZM774.525 315.94C780.832 315.94 786.369 314.583 791.135 311.87C795.976 309.083 799.752 305.197 802.465 300.21C805.179 295.223 806.535 289.357 806.535 282.61C806.535 275.937 805.179 270.07 802.465 265.01C799.752 259.877 795.976 255.88 791.135 253.02C786.369 250.16 780.832 248.73 774.525 248.73C768.219 248.73 762.645 250.16 757.805 253.02C753.039 255.88 749.299 259.877 746.585 265.01C743.872 270.07 742.516 275.937 742.516 282.61C742.516 289.357 743.872 295.223 746.585 300.21C749.299 305.197 753.039 309.083 757.805 311.87C762.645 314.583 768.219 315.94 774.525 315.94Z" fill="#27235E"></path><path d="M875.414 389.2V361.7H893.784V249.28H875.414V221.78H927.224V264.57L926.564 278.98V285.14L927.224 301.86V361.7H944.604V389.2H875.414ZM966.604 345.53C957.804 345.53 949.664 343.623 942.184 339.81C934.778 335.923 928.324 330.093 922.824 322.32C917.324 314.547 913.108 304.83 910.174 293.17L926.564 282.61C926.564 289.283 927.738 295.15 930.084 300.21C932.504 305.27 936.024 309.23 940.644 312.09C945.264 314.95 950.838 316.38 957.364 316.38C963.818 316.38 969.318 314.95 973.864 312.09C978.484 309.23 982.004 305.27 984.424 300.21C986.918 295.077 988.164 289.137 988.164 282.39C988.164 275.643 986.881 269.703 984.314 264.57C981.821 259.437 978.228 255.44 973.534 252.58C968.914 249.72 963.524 248.29 957.364 248.29C950.911 248.29 945.374 249.72 940.754 252.58C936.208 255.44 932.688 259.473 930.194 264.68C927.774 269.813 926.564 275.79 926.564 282.61L923.264 255.66H928.324C929.791 247.96 932.174 241.397 935.474 235.97C938.848 230.543 943.211 226.4 948.564 223.54C953.991 220.68 960.518 219.25 968.144 219.25C976.431 219.25 983.911 220.9 990.584 224.2C997.331 227.427 1003.09 231.937 1007.85 237.73C1012.62 243.523 1016.29 250.233 1018.85 257.86C1021.42 265.487 1022.7 273.663 1022.7 282.39C1022.7 295.223 1020.36 306.37 1015.66 315.83C1011.04 325.29 1004.52 332.623 996.084 337.83C987.724 342.963 977.898 345.53 966.604 345.53Z" fill="#27235E"></path><path d="M1131.44 345.53C1118.02 345.53 1106.32 342.89 1096.35 337.61C1086.38 332.257 1078.6 324.887 1073.03 315.5C1067.53 306.04 1064.78 295.113 1064.78 282.72C1064.78 270.18 1067.53 259.143 1073.03 249.61C1078.6 240.077 1086.38 232.633 1096.35 227.28C1106.32 221.927 1118.02 219.25 1131.44 219.25C1144.79 219.25 1156.45 221.927 1166.42 227.28C1176.47 232.633 1184.24 240.077 1189.74 249.61C1195.24 259.143 1197.99 270.18 1197.99 282.72C1197.99 295.113 1195.24 306.04 1189.74 315.5C1184.24 324.887 1176.5 332.257 1166.53 337.61C1156.56 342.89 1144.86 345.53 1131.44 345.53ZM1131.44 315.94C1137.75 315.94 1143.28 314.583 1148.05 311.87C1152.89 309.083 1156.67 305.197 1159.38 300.21C1162.09 295.223 1163.45 289.357 1163.45 282.61C1163.45 275.937 1162.09 270.07 1159.38 265.01C1156.67 259.877 1152.89 255.88 1148.05 253.02C1143.28 250.16 1137.75 248.73 1131.44 248.73C1125.13 248.73 1119.56 250.16 1114.72 253.02C1109.95 255.88 1106.21 259.877 1103.5 265.01C1100.79 270.07 1099.43 275.937 1099.43 282.61C1099.43 289.357 1100.79 295.223 1103.5 300.21C1106.21 305.197 1109.95 309.083 1114.72 311.87C1119.56 314.583 1125.13 315.94 1131.44 315.94Z" fill="#27235E"></path><path d="M1291.83 315.5H1309.21V343H1239.47V315.5H1258.39V249.28H1239.47V221.78H1291.83V315.5ZM1333.3 254.23C1332.05 253.863 1330.66 253.607 1329.12 253.46C1327.65 253.24 1326.04 253.13 1324.28 253.13C1314.09 253.13 1306.13 256.1 1300.41 262.04C1294.69 267.98 1291.83 276.45 1291.83 287.45L1286 257.64H1293.04C1293.85 249.28 1295.64 242.313 1298.43 236.74C1301.29 231.093 1305.1 226.877 1309.87 224.09C1314.64 221.303 1320.28 219.91 1326.81 219.91C1328.06 219.91 1329.19 219.983 1330.22 220.13C1331.32 220.203 1332.35 220.35 1333.3 220.57V254.23Z" fill="#27235E"></path><path d="M1418.4 303.51C1418.4 307.47 1419.1 310.44 1420.49 312.42C1421.96 314.4 1424.05 315.39 1426.76 315.39C1429.48 315.39 1431.53 314.4 1432.92 312.42C1434.39 310.367 1435.12 307.397 1435.12 303.51V291.96H1463.83V303.29C1463.83 311.943 1462.48 319.423 1459.76 325.73C1457.05 331.963 1452.8 336.767 1447 340.14C1441.21 343.513 1433.73 345.2 1424.56 345.2C1415.4 345.2 1407.88 343.477 1402.01 340.03C1396.22 336.583 1391.93 331.743 1389.14 325.51C1386.36 319.277 1384.96 311.943 1384.96 303.51V249.39H1366.15V221.78H1384.96V189.99H1418.4V221.78H1462.62L1462.4 249.39H1418.4V303.51Z" fill="#27235E"></path></svg>